<svg class="svg-inline--fa fa-linkedin-in fa-w-14" width="32" height="31.999" aria-hidden="true" data-icon="linkedin-in" data-prefix="fab" focusable="false" role="img" version="1.1" viewBox="0 0 32 31.999" xmlns="http://www.w3.org/2000/svg">
 <path d="m7.1629 31.999h-6.6343v-21.364h6.6343zm-3.3207-24.279c-2.1214 0-3.8421-1.7571-3.8421-3.8786a3.8421 3.8421 0 0 1 7.6843 0c0 2.1214-1.7214 3.8786-3.8421 3.8786zm28.151 24.279h-6.62v-10.4c0-2.4786-0.05-5.6571-3.4493-5.6571-3.4493 0-3.9779 2.6928-3.9779 5.4786v10.579h-6.6271v-21.364h6.3629v2.9143h0.09286c0.88571-1.6786 3.0493-3.45 6.2771-3.45 6.7143 0 7.9486 4.4214 7.9486 10.164v11.736z" fill="#89c2ff" stroke-width=".071429"/>
</svg>
