<svg class="svg-inline--fa fa-paypal fa-w-12" width="23.703" height="28" aria-hidden="true" data-icon="paypal" data-prefix="fab" focusable="false" role="img" version="1.1" viewBox="0 0 23.703 28" xmlns="http://www.w3.org/2000/svg">
 <path d="m6.8728 16.46c-0.21609 1.1854-1.0743 6.7112-1.3274 8.2731-0.018522 0.11113-0.06174 0.15435-0.18522 0.15435h-4.6058c-0.46923 0-0.80879-0.40748-0.74709-0.85819l3.618-22.961c0.092612-0.59271 0.62358-1.0434 1.2348-1.0434 9.4034 0 10.193-0.22844 12.595 0.70384 3.7106 1.4385 4.0502 4.9084 2.7166 8.6619-1.3274 3.865-4.4761 5.5257-8.6501 5.5751-2.6795 0.04318-4.291-0.43218-4.649 1.4941zm15.17-8.8842c-0.11114-0.08026-0.15435-0.11114-0.18522 0.08026-0.12348 0.70384-0.31488 1.3891-0.54332 2.0744-2.4635 7.0261-9.2923 6.4148-12.626 6.4148-0.37662 0-0.62358 0.20374-0.67297 0.58036-1.3954 8.6686-1.6731 10.477-1.6731 10.477-0.06174 0.43836 0.21609 0.79642 0.65445 0.79642h3.9205c0.53097 0 0.9693-0.38896 1.0743-0.91997 0.04322-0.3334-0.06792 0.37662 0.88908-5.6369 0.28401-1.3583 0.88286-1.2163 1.809-1.2163 4.3836 0 7.8042-1.7782 8.8227-6.9335 0.40131-2.1486 0.28401-4.4083-1.4694-5.7171z" fill="#099eff" stroke-width=".06174"/>
</svg>
