<svg class="svg-inline--fa fa-twitter fa-w-16" width="32" height="32" aria-hidden="true" data-icon="twitter" data-prefix="fab" focusable="false" role="img" version="1.1" viewBox="0 0 32 32" xmlns="http://www.w3.org/2000/svg">
 <path d="m28.846 12.455c0.02031 0.2875 0.02031 0.56875 0.02031 0.85625 3e-6 8.6688-6.599 18.656-18.66 18.656-3.7158 0-7.1675-1.075-10.071-2.9438 0.52794 0.0625 1.0355 0.08125 1.5838 0.08125 3.0659 0 5.8883-1.0375 8.1422-2.8-2.8833-0.0625-5.2995-1.95-6.132-4.55 0.40613 0.0625 0.81219 0.1 1.2386 0.1 0.58881 0 1.1777-0.08125 1.7259-0.21875-3.0051-0.6125-5.259-3.25-5.259-6.4375v-0.08125c0.87307 0.4875 1.8884 0.7875 2.9644 0.83125-1.7665-1.175-2.9238-3.1875-2.9238-5.4625 0-1.2188 0.32481-2.3375 0.89338-3.3125 3.2285 3.9813 8.0813 6.5813 13.523 6.8688-0.1015-0.4875-0.16244-1-0.16244-1.5063 0-3.6125 2.9239-6.5563 6.5584-6.5563 1.8883 0 3.5939 0.79375 4.7919 2.0688 1.4822-0.28125 2.9035-0.83125 4.1625-1.5813-0.48738 1.5188-1.5229 2.8-2.8833 3.6125 1.3198-0.14375 2.599-0.50625 3.7766-1.0125-0.89325 1.3-2.0101 2.4563-3.2893 3.3875z" fill="#caffff" stroke-width=".0625"/>
</svg>
